<svg version="1.1" xmlns="http://www.w3.org/2000/svg" xmlns:xlink="http://www.w3.org/1999/xlink"
	 viewBox="0 0 800 440.6" style="enable-background:new 0 0 519.1 440.6;" xml:space="preserve">
    <style type="text/css">
        .amarelo{fill:#FFEA00; animation-duration: 10s;animation-name: tranlateX;}
        .amareloStroke{fill:none;stroke:#FFEA00;stroke-width:3;stroke-miterlimit:10;animation-duration: 13s;animation-name: tranlateX;}
        .laranjaFill{fill:#ED721A;animation-duration: 15s;animation-name: tranlateX;}
        .laranjaStroke{fill:none;stroke:#ED721A;stroke-width:3;stroke-miterlimit:10;animation-duration: 18s;animation-name: tranlateX;}
        .azul{fill:rgba(0, 161, 225, 0.685);animation-duration: 20s;animation-name: tranlateX;}
        .azulStroke{fill:none;stroke:#009CA2;stroke-width:3;stroke-miterlimit:10;animation-duration: 25s;animation-name: tranlateX;}
        .magenta{fill:#E52280;animation-duration: 11s;animation-name: tranlateX;}
        .amarelo2{fill:#FABC00;animation-duration: 28s;animation-name: tranlateX;}
        .branco{fill:none;stroke:#FFFFFF;stroke-width:3;stroke-miterlimit:10;animation-duration: 8s;animation-name: tranlateX;}
        .anim{opacity: 0;transform: translateX(0);animation-iteration-count: infinite;animation-timing-function: ease-in;}
        @keyframes tranlateX{0%{opacity: 0;transform: translateX(0);}30%{opacity: 1;}80%{opacity: 1;}100%{opacity: 0;transform: translateX(150px);}}
    </style>
	<path class="anim amarelo" d="M283,204c-4.3,0-8.5-1.6-11.8-4.9c-6.5-6.5-6.5-17.1,0-23.6l31.5-31.5l-31.5-31.5c-6.5-6.5-6.5-17.1,0-23.6
		c6.5-6.5,17.1-6.5,23.6,0l43.3,43.3c6.5,6.5,6.5,17.1,0,23.6l-43.3,43.3C291.5,202.4,287.2,204,283,204z"/>
	<path class="anim laranjaFill" d="M161.5,380c-5.2,0-10.4-2-14.3-5.9c-7.9-7.9-7.9-20.7,0-28.6l38.2-38.2L147.2,269c-7.9-7.9-7.9-20.7,0-28.6
		s20.7-7.9,28.6,0l52.5,52.5c7.9,7.9,7.9,20.7,0,28.6l-52.5,52.5C171.9,378.1,166.7,380,161.5,380z"/>
	<path class="anim azul" d="M199.4,416.6c-11.1,0-22.2-4.2-30.7-12.7c-16.9-16.9-16.9-44.5,0-61.4l82.1-82.1l-82.1-82.1
		c-16.9-16.9-16.9-44.5,0-61.4s44.5-16.9,61.4,0l112.8,112.8c16.9,16.9,16.9,44.5,0,61.4L230.1,403.9
		C221.7,412.4,210.5,416.6,199.4,416.6z"/>
	<path class="anim laranjaStroke" d="M149.3,246.2c-8.7,0-17.4-3.3-24.1-10c-13.3-13.3-13.3-34.8,0-48.1l64.3-64.3l-64.3-64.3
		c-13.3-13.3-13.3-34.8,0-48.1s34.8-13.3,48.1,0l88.3,88.3c13.3,13.3,13.3,34.8,0,48.1l-88.3,88.3
		C166.7,242.9,158,246.2,149.3,246.2z"/>
	<path class="anim azulStroke" d="M293.1,224.1c-6.3,0-12.5-2.4-17.3-7.2c-9.6-9.6-9.6-25.1,0-34.7l46.3-46.3l-46.3-46.3
		c-9.6-9.6-9.6-25.1,0-34.7s25.1-9.6,34.7,0l63.6,63.6c9.6,9.6,9.6,25.1,0,34.7L310.4,217C305.6,221.8,299.4,224.1,293.1,224.1z"/>
	<path class="anim amarelo" d="M8.7,239.3c-2.2,0-4.4-0.8-6.1-2.5c-3.4-3.4-3.4-8.9,0-12.2l16.4-16.4L2.5,191.8c-3.4-3.4-3.4-8.9,0-12.2
		c3.4-3.4,8.9-3.4,12.2,0l22.5,22.5c3.4,3.4,3.4,8.9,0,12.2l-22.5,22.5C13.1,238.5,10.9,239.3,8.7,239.3z"/>
	<path class="anim magenta" d="M73.6,304.2c-7.2,0-14.4-2.7-19.8-8.2c-10.9-10.9-10.9-28.7,0-39.7l53-53l-53-53c-10.9-10.9-10.9-28.7,0-39.7
		s28.7-10.9,39.7,0l72.9,72.9c10.9,10.9,10.9,28.7,0,39.7L93.4,296C87.9,301.5,80.7,304.2,73.6,304.2z"/>
	<path class="anim amarelo" d="M486.5,300.9c-2.3,0-4.6-0.9-6.4-2.6c-3.5-3.5-3.5-9.3,0-12.8l17.1-17.1l-17.1-17.1c-3.5-3.5-3.5-9.3,0-12.8
		c3.5-3.5,9.3-3.5,12.8,0l23.5,23.5c3.5,3.5,3.5,9.3,0,12.8l-23.5,23.5C491.2,300,488.9,300.9,486.5,300.9z"/>
	<path class="anim magenta" d="M430.9,164.3c-2.3,0-4.6-0.9-6.4-2.6c-3.5-3.5-3.5-9.3,0-12.8l17.1-17.1l-17.1-17.1c-3.5-3.5-3.5-9.3,0-12.8
		c3.5-3.5,9.3-3.5,12.8,0l23.5,23.5c3.5,3.5,3.5,9.3,0,12.8l-23.5,23.5C435.6,163.4,433.3,164.3,430.9,164.3z"/>
	<path class="anim magenta" d="M123,386.1c-2.3,0-4.6-0.9-6.4-2.6c-3.5-3.5-3.5-9.3,0-12.8l17.1-17.1l-17.1-17.1c-3.5-3.5-3.5-9.3,0-12.8
		c3.5-3.5,9.3-3.5,12.8,0l23.5,23.5c3.5,3.5,3.5,9.3,0,12.8l-23.5,23.5C127.7,385.2,125.4,386.1,123,386.1z"/>
	<path class="anim amarelo2" d="M213.3,440.6c-1.7,0-3.4-0.7-4.7-2c-2.6-2.6-2.6-6.8,0-9.4l12.6-12.6L208.6,404c-2.6-2.6-2.6-6.8,0-9.4
		c2.6-2.6,6.8-2.6,9.4,0l17.3,17.3c2.6,2.6,2.6,6.8,0,9.4l-17.3,17.3C216.7,440,215,440.6,213.3,440.6z"/>
	<path class="anim branco" d="M206.5,207.5c-4.8,0-9.6-1.8-13.2-5.5c-7.3-7.3-7.3-19.1,0-26.4l35.3-35.3l-35.3-35.3
		c-7.3-7.3-7.3-19.1,0-26.4c7.3-7.3,19.1-7.3,26.4,0l48.5,48.5c7.3,7.3,7.3,19.1,0,26.4l-48.5,48.5
		C216,205.7,211.2,207.5,206.5,207.5z"/>
	<path class="anim amareloStroke" d="M230.6,313.6c-2.9,0-5.8-1.1-8-3.3c-4.4-4.4-4.4-11.6,0-16l21.3-21.3l-21.3-21.3c-4.4-4.4-4.4-11.6,0-16
		c4.4-4.4,11.6-4.4,16,0l29.3,29.3c4.4,4.4,4.4,11.6,0,16l-29.3,29.3C236.4,312.5,233.5,313.6,230.6,313.6z"/>
	<path class="anim amarelo" d="M139.7,282.9c-6,0-12-2.3-16.5-6.8c-9.1-9.1-9.1-24,0-33.1l44.2-44.2l-44.2-44.2c-9.1-9.1-9.1-24,0-33.1
		s24-9.1,33.1,0l60.7,60.7c9.1,9.1,9.1,24,0,33.1l-60.7,60.7C151.7,280.6,145.7,282.9,139.7,282.9z"/>
</svg>